<?xml version="1.0" encoding="utf-8"?>
<!-- Generator: Adobe Illustrator 24.0.0, SVG Export Plug-In . SVG Version: 6.00 Build 0)  -->
<svg version="1.1" id="Capa_1" xmlns="http://www.w3.org/2000/svg" xmlns:xlink="http://www.w3.org/1999/xlink" x="0px" y="0px"
	 viewBox="0 0 300 300" style="enable-background:new 0 0 300 300;" xml:space="preserve">
<style type="text/css">
	.st0{fill:#3C56A2;}
</style>
<g>
	<path class="st0" d="M215.29,108.96c11.85,16.6,18.85,36.88,18.85,58.78c0,55.92-45.49,101.41-101.41,101.41
		S31.32,223.66,31.32,167.74S76.81,66.33,132.73,66.33c21.9,0,42.19,7,58.79,18.86l20.59-20.59
		c-21.99-16.96-49.52-27.09-79.37-27.09C60.92,37.51,2.5,95.93,2.5,167.74s58.42,130.23,130.23,130.23s130.23-58.42,130.23-130.23
		c0-29.86-10.12-57.38-27.09-79.37L215.29,108.96z"/>
	<path class="st0" d="M200.11,124.15l-15.22,15.22c4.61,8.44,7.23,18.1,7.23,28.37c0,32.74-26.64,59.38-59.38,59.38
		s-59.38-26.64-59.38-59.38c0-32.74,26.64-59.38,59.38-59.38c10.27,0,19.94,2.62,28.37,7.23l15.22-15.22
		c-12.56-8.14-27.52-12.89-43.6-12.89c-44.33,0-80.26,35.93-80.26,80.26c0,44.33,35.93,80.26,80.26,80.26
		c44.33,0,80.26-35.93,80.26-80.26C212.99,151.67,208.25,136.7,200.11,124.15z"/>
	<circle class="st0" cx="132.73" cy="167.75" r="34.33"/>
	<polygon class="st0" points="297.5,32.22 274.58,25.29 268.91,2.02 226.85,41.84 231.41,60.58 128.49,163.5 136.98,171.99 
		241.22,67.75 255.43,72.04 	"/>
</g>
</svg>
