<?xml version="1.0" encoding="utf-8"?>
<!-- Generator: Adobe Illustrator 24.0.0, SVG Export Plug-In . SVG Version: 6.00 Build 0)  -->
<svg version="1.1" id="Capa_1" xmlns="http://www.w3.org/2000/svg" xmlns:xlink="http://www.w3.org/1999/xlink" x="0px" y="0px"
	 viewBox="0 0 300 300" style="enable-background:new 0 0 300 300;" xml:space="preserve">
<style type="text/css">
	.st0{fill:#3C56A2;}
</style>
<g>
	<g>
		<path class="st0" d="M99.89,176.17l32.24,120.89L25.53,176.17H99.89z"/>
		<path class="st0" d="M100.5,158.9H25.53l49.28-49.28c1.62-1.62,3.82-2.53,6.11-2.53h49.19L100.5,158.9z"/>
		<path class="st0" d="M184.6,158.9h-72.84L150,107.09L184.6,158.9z"/>
		<path class="st0" d="M182.24,176.61L150,297.5l-32.24-120.89H182.24z"/>
		<path class="st0" d="M199.5,158.9l-29.61-51.81h49.19c2.29,0,4.48,0.91,6.11,2.53l49.28,49.28H199.5z"/>
		<path class="st0" d="M200.11,176.61h74.36L167.87,297.5L200.11,176.61z"/>
		<path class="st0" d="M150,51.74c-4.77,0-8.63-3.87-8.63-8.63V11.13c0-4.77,3.87-8.63,8.63-8.63s8.63,3.87,8.63,8.63V43.1
			C158.63,47.87,154.77,51.74,150,51.74z"/>
		<path class="st0" d="M64.16,69.57L48.18,41.88c-2.38-4.13-0.97-9.41,3.16-11.8c4.13-2.38,9.41-0.97,11.8,3.16l15.98,27.68
			c2.38,4.13,0.97,9.41-3.16,11.8C71.85,75.1,66.56,73.72,64.16,69.57z"/>
		<path class="st0" d="M224.04,72.73c-4.13-2.38-5.55-7.67-3.16-11.8l15.98-27.68c2.38-4.13,7.66-5.55,11.8-3.16
			c4.13,2.38,5.55,7.67,3.16,11.8l-15.98,27.68C233.44,73.71,228.16,75.11,224.04,72.73z"/>
	</g>
</g>
</svg>
