<?xml version="1.0" encoding="utf-8"?>
<!-- Generator: Adobe Illustrator 24.0.0, SVG Export Plug-In . SVG Version: 6.00 Build 0)  -->
<svg version="1.1" id="Capa_1" xmlns="http://www.w3.org/2000/svg" xmlns:xlink="http://www.w3.org/1999/xlink" x="0px" y="0px"
	 viewBox="0 0 300 300" style="enable-background:new 0 0 300 300;" xml:space="preserve">
<style type="text/css">
	.st0{fill:#3C56A2;}
	.st1{fill:#FFFFFF;}
</style>
<circle class="st0" cx="150" cy="150" r="147.5"/>
<g>
	<path class="st1" d="M172.64,99.27c23.58,10.2,40.09,33.66,40.09,60.99c0,27.33-16.51,50.79-40.09,60.99
		c83.3-9.33,122.36-60.99,122.36-60.99S255.94,108.61,172.64,99.27z"/>
	<path class="st1" d="M79.89,160.26c0-27.26,16.43-50.68,39.93-60.91C38.1,108.91,5,160.26,5,160.26s33.1,51.35,114.81,60.91
		C96.32,210.94,79.89,187.53,79.89,160.26z"/>
	<path class="st1" d="M146.31,116.35c-24.25,0-43.91,19.66-43.91,43.91s19.66,43.91,43.91,43.91s43.91-19.66,43.91-43.91
		S170.56,116.35,146.31,116.35z M146.31,177.42c-9.48,0-17.16-7.68-17.16-17.16c0-9.48,7.68-17.16,17.16-17.16
		s17.16,7.68,17.16,17.16C163.47,169.74,155.79,177.42,146.31,177.42z M169.74,140.28c-3.46,0-6.27-2.81-6.27-6.27
		c0-3.46,2.81-6.27,6.27-6.27c3.46,0,6.27,2.81,6.27,6.27C176.02,137.47,173.21,140.28,169.74,140.28z"/>
	<path class="st1" d="M66.37,94.67c5.36-1.71,10.96-3.29,16.83-4.69L56.51,63.29c-5.82,1.41-11.46,2.95-16.92,4.59L66.37,94.67z"/>
	<path class="st1" d="M144.05,53.24c-1.8,0-3.57,0.03-5.35,0.05v29.79c2.26-0.05,4.49-0.13,6.79-0.13c2.85,0,5.64,0.08,8.42,0.16
		V53.36C150.66,53.29,147.38,53.24,144.05,53.24z"/>
	<path class="st1" d="M235.45,63.95l-26.18,26.18c5.86,1.38,11.49,2.93,16.91,4.61l26.2-26.2C246.9,66.9,241.25,65.37,235.45,63.95z
		"/>
</g>
</svg>
