<svg xmlns="http://www.w3.org/2000/svg" xmlns:xlink="http://www.w3.org/1999/xlink" id="Capa_1" x="0px" y="0px" viewBox="0 0 300 300" style="enable-background:new 0 0 300 300;" xml:space="preserve"><style type="text/css">	.st0{fill:#005677;}	.st1{fill:#009ADE;}	.st2{fill:#FE3B1F;stroke:#FFFFFF;stroke-width:0.5;stroke-miterlimit:10;}	.st3{fill:#009ADE;stroke:#FFFFFF;stroke-width:0.5;stroke-miterlimit:10;}	.st4{fill:#3DAE2B;stroke:#FFFFFF;stroke-width:0.5;stroke-miterlimit:10;}	.st5{fill:#FDE021;stroke:#FFFFFF;stroke-width:0.5;stroke-miterlimit:10;}</style><g>	<g>		<path class="st0" d="M16.56,271.3h3.72l3.63,14.67l7.86-14.67h4.1L25,291.61H21.6L16.56,271.3z"></path>		<path class="st0" d="M37.11,276.59h3.65l-2.03,15.03h-3.68L37.11,276.59z M39.64,270.44c0.63,0,1.16,0.22,1.61,0.67   c0.45,0.45,0.67,0.98,0.67,1.61c0,0.63-0.22,1.16-0.67,1.61c-0.45,0.45-0.98,0.67-1.61,0.67c-0.63,0-1.16-0.22-1.61-0.67   c-0.45-0.45-0.67-0.98-0.67-1.61c0-0.63,0.22-1.16,0.67-1.61C38.48,270.67,39.01,270.44,39.64,270.44z"></path>		<path class="st0" d="M42.46,276.59h3.62l2.35,8.35l4.82-8.35h4.02l-8.72,15.03h-1.79L42.46,276.59z"></path>		<path class="st0" d="M59.73,276.59h3.65l-2.03,15.03h-3.68L59.73,276.59z M62.26,270.44c0.63,0,1.16,0.22,1.61,0.67   c0.45,0.45,0.67,0.98,0.67,1.61c0,0.63-0.22,1.16-0.67,1.61c-0.45,0.45-0.98,0.67-1.61,0.67c-0.63,0-1.16-0.22-1.61-0.67   c-0.45-0.45-0.67-0.98-0.67-1.61c0-0.63,0.22-1.16,0.67-1.61C61.1,270.67,61.63,270.44,62.26,270.44z"></path>		<path class="st0" d="M76.21,287.22l3.25,1.68c-0.73,0.95-1.69,1.71-2.89,2.27c-1.2,0.56-2.53,0.83-4,0.83   c-2.29,0-4.1-0.65-5.42-1.93c-1.32-1.29-1.98-3-1.98-5.14c0-2.44,0.83-4.5,2.48-6.19c1.65-1.69,3.65-2.53,5.99-2.53   c1.41,0,2.66,0.31,3.76,0.93c1.1,0.62,1.97,1.52,2.6,2.69c0.64,1.18,0.95,2.46,0.95,3.84c0,0.43-0.05,0.94-0.14,1.52H68.82   c0.04,1.04,0.38,1.88,1.03,2.5c0.65,0.62,1.54,0.93,2.69,0.93C73.91,288.6,75.14,288.14,76.21,287.22z M77.14,282.47   c-0.28-0.92-0.74-1.62-1.38-2.09c-0.64-0.48-1.42-0.71-2.33-0.71c-0.9,0-1.72,0.24-2.44,0.73c-0.73,0.49-1.28,1.18-1.66,2.07   H77.14z"></path>		<path class="st0" d="M85.11,276.59h3.68l-0.21,1.53c1.41-1.27,2.88-1.91,4.4-1.91c1.3,0,2.36,0.41,3.19,1.24s1.24,1.86,1.24,3.12   c0,0.59-0.08,1.47-0.23,2.64l-1.15,8.42h-3.68l1.12-8.22c0.11-0.85,0.17-1.48,0.17-1.91c0-0.61-0.17-1.08-0.52-1.4   c-0.35-0.33-0.84-0.49-1.48-0.49c-0.62,0-1.24,0.21-1.86,0.64c-0.62,0.43-1.09,1.02-1.43,1.78c-0.33,0.76-0.64,2.19-0.91,4.28   l-0.71,5.32h-3.68L85.11,276.59z"></path>		<path class="st0" d="M113.91,270.79h3.69l-2.89,20.83h-3.65l0.22-1.61c-0.8,0.75-1.55,1.26-2.25,1.56   c-0.7,0.29-1.48,0.44-2.34,0.44c-1.99,0-3.57-0.73-4.75-2.2c-1.17-1.46-1.76-3.17-1.76-5.11c0-1.48,0.38-2.89,1.13-4.23   c0.75-1.34,1.76-2.39,3.03-3.14c1.27-0.75,2.59-1.12,3.98-1.12c0.93,0,1.78,0.21,2.57,0.64c0.78,0.43,1.43,1.05,1.94,1.86   L113.91,270.79z M107.57,288.71c0.91,0,1.7-0.2,2.37-0.61c0.67-0.4,1.24-1.04,1.7-1.9c0.46-0.86,0.69-1.75,0.69-2.65   c0-1.19-0.35-2.15-1.03-2.87c-0.69-0.72-1.6-1.09-2.73-1.09c-1.31,0-2.43,0.48-3.34,1.45c-0.92,0.97-1.37,2.21-1.37,3.74   c0,1.18,0.35,2.13,1.04,2.84C105.59,288.35,106.48,288.71,107.57,288.71z"></path>		<path class="st0" d="M127.51,276.2c1.33,0,2.55,0.31,3.64,0.93c1.09,0.62,1.94,1.49,2.55,2.62c0.61,1.13,0.91,2.4,0.91,3.81   c0,2.34-0.83,4.33-2.5,5.97c-1.67,1.65-3.73,2.47-6.19,2.47c-2.14,0-3.84-0.65-5.11-1.94c-1.27-1.29-1.91-2.98-1.91-5.07   c0-2.52,0.86-4.62,2.58-6.28S125.22,276.2,127.51,276.2z M127.25,279.7c-1.51,0-2.66,0.54-3.47,1.62   c-0.8,1.08-1.21,2.25-1.21,3.51c0,1.12,0.33,2.03,0.99,2.71c0.66,0.69,1.53,1.03,2.63,1.03c1.55,0,2.74-0.52,3.55-1.57   c0.81-1.05,1.22-2.24,1.22-3.58c0-1.1-0.35-2-1.03-2.69C129.24,280.04,128.35,279.7,127.25,279.7z"></path>		<path class="st0" d="M155.97,287.22l3.25,1.68c-0.73,0.95-1.69,1.71-2.89,2.27c-1.2,0.56-2.54,0.83-4,0.83   c-2.29,0-4.1-0.65-5.42-1.93c-1.32-1.29-1.98-3-1.98-5.14c0-2.44,0.83-4.5,2.48-6.19c1.65-1.69,3.65-2.53,5.99-2.53   c1.41,0,2.66,0.31,3.76,0.93c1.1,0.62,1.97,1.52,2.6,2.69c0.64,1.18,0.95,2.46,0.95,3.84c0,0.43-0.05,0.94-0.14,1.52h-11.99   c0.04,1.04,0.38,1.88,1.03,2.5c0.65,0.62,1.54,0.93,2.69,0.93C153.68,288.6,154.9,288.14,155.97,287.22z M156.91,282.47   c-0.28-0.92-0.74-1.62-1.38-2.09c-0.64-0.48-1.42-0.71-2.33-0.71c-0.9,0-1.72,0.24-2.44,0.73c-0.73,0.49-1.28,1.18-1.66,2.07   H156.91z"></path>		<path class="st0" d="M165.22,270.79h3.68l-2.85,20.83h-3.68L165.22,270.79z"></path>		<path class="st0" d="M190.6,276.59h3.69l-2.1,15.03h-3.65l0.22-1.61c-0.8,0.75-1.55,1.26-2.25,1.56c-0.7,0.29-1.48,0.44-2.34,0.44   c-1.99,0-3.57-0.73-4.75-2.2c-1.18-1.46-1.76-3.17-1.76-5.11c0-1.48,0.38-2.89,1.13-4.23c0.75-1.34,1.76-2.39,3.03-3.14   c1.27-0.75,2.59-1.12,3.98-1.12c0.93,0,1.79,0.21,2.57,0.64c0.78,0.43,1.43,1.05,1.94,1.86L190.6,276.59z M185.06,288.71   c0.91,0,1.7-0.2,2.38-0.61c0.68-0.4,1.24-1.04,1.7-1.9c0.46-0.86,0.69-1.75,0.69-2.65c0-1.19-0.35-2.15-1.04-2.87   c-0.69-0.72-1.6-1.09-2.73-1.09c-1.32,0-2.43,0.48-3.35,1.45c-0.92,0.97-1.38,2.21-1.38,3.74c0,1.18,0.35,2.13,1.04,2.84   C183.08,288.35,183.97,288.71,185.06,288.71z"></path>		<path class="st0" d="M198.28,276.59h3.65l-1.05,7.68c-0.11,0.85-0.17,1.48-0.17,1.91c0,0.66,0.23,1.22,0.69,1.67   c0.46,0.45,1.06,0.68,1.8,0.68c0.95,0,1.68-0.29,2.19-0.87c0.51-0.58,0.89-1.76,1.13-3.54l1.03-7.53h3.65l-1.08,8.08   c-0.25,1.82-0.67,3.23-1.25,4.23c-0.59,1-1.36,1.77-2.33,2.3c-0.97,0.53-2.11,0.8-3.42,0.8c-1.85,0-3.31-0.53-4.4-1.6   c-1.09-1.06-1.63-2.44-1.63-4.12c0-1.03,0.12-2.36,0.36-3.98L198.28,276.59z"></path>		<path class="st0" d="M215.94,271.01h3.67l-0.76,5.58h2.33l-0.44,3.18h-2.32l-1.61,11.85h-3.68l1.62-11.85h-1.81l0.43-3.18h1.82   L215.94,271.01z"></path>		<path class="st0" d="M223.19,276.59h3.65l-2.03,15.03h-3.68L223.19,276.59z M225.72,270.44c0.63,0,1.16,0.22,1.61,0.67   c0.45,0.45,0.67,0.98,0.67,1.61c0,0.63-0.22,1.16-0.67,1.61c-0.45,0.45-0.98,0.67-1.61,0.67c-0.63,0-1.16-0.22-1.61-0.67   c-0.45-0.45-0.67-0.98-0.67-1.61c0-0.63,0.22-1.16,0.67-1.61C224.56,270.67,225.1,270.44,225.72,270.44z"></path>		<path class="st0" d="M238.69,278.69l-1.76,2.82c-0.45-0.67-0.93-1.17-1.43-1.48c-0.5-0.32-0.96-0.48-1.4-0.48   c-0.33,0-0.61,0.09-0.84,0.28s-0.35,0.39-0.35,0.62c0,0.22,0.09,0.44,0.28,0.66c0.17,0.22,0.7,0.65,1.59,1.28   c1.41,1.01,2.34,1.88,2.79,2.6c0.45,0.72,0.67,1.51,0.67,2.35c0,1.11-0.46,2.17-1.37,3.16c-0.92,0.99-2.25,1.49-3.99,1.49   c-1,0-1.92-0.2-2.74-0.61c-0.82-0.4-1.74-1.15-2.76-2.22l2.28-2.65c1.03,1.36,2.16,2.04,3.38,2.04c0.49,0,0.88-0.12,1.17-0.35   c0.29-0.23,0.43-0.51,0.43-0.83c0-0.26-0.11-0.52-0.33-0.8c-0.22-0.27-0.82-0.76-1.81-1.46c-1.14-0.81-1.93-1.51-2.36-2.09   c-0.61-0.81-0.91-1.67-0.91-2.57c0-1.26,0.48-2.29,1.43-3.08s2.08-1.19,3.38-1.19c0.91,0,1.78,0.22,2.6,0.65   C237.47,277.28,238.15,277.9,238.69,278.69z"></path>		<path class="st0" d="M242.91,276.59h3.69l-0.22,1.64c1.33-1.35,2.83-2.03,4.49-2.03c0.67,0,1.3,0.11,1.88,0.34   c0.58,0.23,1.06,0.52,1.42,0.88c0.36,0.36,0.67,0.86,0.93,1.5c0.69-0.89,1.5-1.57,2.43-2.03c0.93-0.46,1.9-0.69,2.9-0.69   c1.26,0,2.31,0.42,3.13,1.26c0.83,0.84,1.24,1.94,1.24,3.28c0,0.51-0.05,1.14-0.14,1.9l-1.24,8.97h-3.68l1.06-7.72   c0.14-1.04,0.21-1.73,0.21-2.07c0-0.71-0.18-1.25-0.53-1.62c-0.36-0.37-0.86-0.55-1.5-0.55c-0.63,0-1.26,0.22-1.91,0.67   c-0.64,0.45-1.13,1.04-1.47,1.78s-0.62,2.02-0.85,3.82l-0.78,5.69h-3.68l1.12-8.18c0.09-0.66,0.14-1.23,0.14-1.7   c0-0.66-0.19-1.18-0.57-1.56c-0.38-0.38-0.88-0.58-1.5-0.58c-0.59,0-1.2,0.21-1.82,0.62c-0.63,0.41-1.11,0.97-1.46,1.67   c-0.35,0.7-0.62,1.79-0.81,3.24l-0.85,6.48h-3.68L242.91,276.59z"></path>		<path class="st0" d="M276.25,276.2c1.34,0,2.55,0.31,3.64,0.93s1.94,1.49,2.55,2.62c0.61,1.13,0.91,2.4,0.91,3.81   c0,2.34-0.83,4.33-2.5,5.97c-1.67,1.65-3.73,2.47-6.19,2.47c-2.13,0-3.84-0.65-5.11-1.94c-1.27-1.29-1.91-2.98-1.91-5.07   c0-2.52,0.86-4.62,2.58-6.28C271.96,277.03,273.96,276.2,276.25,276.2z M276,279.7c-1.51,0-2.66,0.54-3.47,1.62   c-0.8,1.08-1.21,2.25-1.21,3.51c0,1.12,0.33,2.03,0.99,2.71c0.66,0.69,1.53,1.03,2.63,1.03c1.55,0,2.74-0.52,3.55-1.57   c0.81-1.05,1.22-2.24,1.22-3.58c0-1.1-0.35-2-1.03-2.69C277.98,280.04,277.09,279.7,276,279.7z"></path>	</g>	<path class="st0" d="M146.44,225.58c1.31,4.28,3.23,9.36,6.1,14.8c3.36,6.36,7.06,11.41,10.29,15.22  c13.25-5.02,28.45-11.92,44.5-21.47c9.83-5.85,22.9-16.04,40.23-29.2c8.02-6.09,21.77-18.19,32.12-37.96  c9.38-17.92,11.9-34.38,12.65-44.14c0.25-7.03-0.23-20.39-7.14-35.03c-9.07-19.22-23.77-29.13-29.85-32.77  c4.68,5.7,10.95,14.68,15.57,26.93c5.03,13.32,6.08,25.1,6.16,32.77c-0.25,6.94-1.47,17.31-6.16,28.88  c-6.1,15.04-15.16,24.92-20.77,30.17c-8.32,8.06-19.38,9.75-26.23,5.13c-4.31-2.9-5.92-7.59-6.54-10  c-1.04-4.68-2.57-11.77-4.22-20.44c-7.12-37.51-4.54-41.82-8.76-56.78c-1.91-6.77-11.03-36.36-38.94-56.46  c-14.03-10.11-27.94-14.31-36.66-16.22c-7.24-1.31-19.55-2.56-34.07,0.97C75.1,24.76,62.38,35.63,56.78,41.07  c-4.81,4.21-22.39,20.6-25.96,48.02c-2.62,20.19,3.71,35.93,6.81,42.5c-0.69-8.51-0.84-23.87,5.52-41.53  c6.31-17.55,16.13-29.25,22.06-35.37c4.38-4.15,15.49-13.55,32.48-16.35c16.75-2.76,29.71,2.47,37.28,5.64  c19.55,8.18,30.9,22.17,36.02,29.53c4.77,8.8,10.37,21.28,13.95,36.99c3.37,14.76,3.89,27.67,3.57,37.31  c-0.31,9.1-2.41,31.41-17.85,53.54C162.32,213.31,152.91,221.04,146.44,225.58z"></path>	<circle class="st1" cx="67.01" cy="136.93" r="24.42"></circle>	<circle class="st0" cx="242.07" cy="136.93" r="24.42"></circle>	<path class="st1" d="M44.42,45.51c-6.22,7.34-13.36,18.06-17.17,32.23c-12.2,45.41,21.01,84.54,25.02,89.11  c1.77,2.33,6.86,8.36,15.66,10.75c3.03,0.82,9.23,2.5,14.8-0.25c2.62-1.29,6.84-4.43,11.68-23.36c2.44-9.56,3.75-19.4,4.87-29.2  c1.04-9.1,3.69-32.43,15.84-49.58c16.84-23.78,39.56-19.41,28.94-6.22c-17.74,22.01-20.4,49.55-19.47,70.73  c-1.64,18.38-1.73,50.34,13.63,84.68c5.72,12.79,12.44,23.36,18.82,31.8c-27.65-8.95-48.84-19.96-63.27-28.55  c-31.24-18.6-67.23-39.65-80.79-79.82c-6.68-19.79-5.84-37.91-4.22-49.64C11.07,81.49,20,70.23,23.03,66.06  C30.5,55.78,38.79,49.27,44.42,45.51z"></path>	<path class="st2" d="M129.99,59l0.1,0.17l3.4,3.97c0.2,0.33,0.03,0.79-0.37,0.88c-0.56,0.14-1.1,0.4-1.57,0.8  c-1.59,1.35-1.79,3.71-0.43,5.23c1.29,1.58,3.65,1.75,5.23,0.4c0.47-0.4,0.82-0.89,1.04-1.42c0.16-0.38,0.64-0.47,0.93-0.22  l3.38,3.98l0.15,0.12c0.21,0.23,0.58,0.25,0.83,0.04l4.4-3.77c0.26,0,0.51,0.16,0.57,0.44c0.28,1.25,1.25,2.36,2.96,2.8  c0.18,0.05,0.36,0.06,0.55,0.04c3.58-0.42,4.7-4.05,2.91-6.16c-0.38-0.45-0.85-0.77-1.36-0.98c-0.28-0.11-0.38-0.4-0.32-0.67  l4.43-3.79c0.26-0.22,0.29-0.6,0.08-0.84l-3.57-4.18l-0.06-0.06l-0.02-0.03c-0.3-0.36-0.88-0.21-1.02,0.25  c-0.42,1.32-1.6,2.45-3.47,2.71c-0.35,0.01-0.69-0.04-1.03-0.13c-0.77-0.26-1.36-0.66-1.79-1.16c-0.42-0.51-0.73-1.16-0.86-1.95  c-0.04-0.34-0.03-0.69,0.03-1.03c0.55-1.8,1.85-2.78,3.22-2.99c0.47-0.07,0.71-0.62,0.4-0.97l-0.02-0.02l-0.05-0.07l-3.56-4.19  c-0.21-0.25-0.59-0.27-0.85-0.06l-4.44,3.78c-0.27,0.02-0.54-0.13-0.61-0.42c-0.12-0.54-0.37-1.05-0.75-1.5  c-1.8-2.1-5.56-1.57-6.54,1.9c-0.05,0.18-0.07,0.37-0.05,0.54c0.16,1.76,1.11,2.89,2.29,3.36c0.27,0.11,0.39,0.38,0.34,0.63  l-4.41,3.75C129.84,58.39,129.8,58.75,129.99,59z"></path>	<path class="st3" d="M248.78,71.71l0.04,0.04l0.1,0.11l7.08,6.23c0.42,0.37,1.07,0.32,1.45-0.12l6.61-7.52  c0.46-0.1,0.96,0.09,1.14,0.56c0.34,0.88,0.89,1.69,1.65,2.36c3.58,3.13,9.84,1.28,10.65-4.86c0.04-0.31,0.02-0.64-0.05-0.94  c-0.71-2.95-2.6-4.62-4.74-5.14c-0.48-0.12-0.75-0.55-0.73-0.99l6.57-7.47c0.37-0.42,0.35-1.05-0.04-1.42l-0.21-0.26l-6.76-5.9  c-0.41-0.51-0.25-1.33,0.41-1.59c0.91-0.37,1.76-0.95,2.46-1.75c2.37-2.69,2.12-6.75-0.56-8.99c-2.58-2.37-6.63-2.07-8.99,0.62  c-0.7,0.8-1.17,1.72-1.41,2.67c-0.17,0.68-0.97,0.95-1.53,0.61l-6.74-5.93l-0.28-0.17c-0.3-0.24-0.7-0.27-1.05-0.12  c-0.06,0.15-0.15,0.3-0.26,0.44l-6.77,7.73l-0.35-0.45c-0.27-0.08-0.5-0.26-0.61-0.56l-0.08-0.17c-0.23-0.2-0.48-0.39-0.75-0.56  l-0.07-0.05l-0.05-0.06c-0.22-0.28-0.43-0.53-0.65-0.73c-2.17-1.89-5.43-1.78-7.6,0.16c-0.19,0.17-0.37,0.34-0.54,0.54  c-0.68,0.78-1.2,1.8-1.49,3.04c-0.06,0.27-0.13,0.54-0.17,0.83c-0.03,0.25-0.02,0.51,0.04,0.75c0.38,1.57,1.11,2.71,2.02,3.51  c0.25,0.21,0.5,0.4,0.77,0.57l0.07,0.04l0.05,0.06c0.17,0.21,0.3,0.37,0.42,0.51c0.16,0.06,0.33,0.11,0.5,0.15  c0.36,0.09,0.59,0.36,0.67,0.68l0.4,0.23l-6.87,7.85c-0.09,0.1-0.19,0.18-0.3,0.26c-0.1,0.37-0.01,0.78,0.29,1.04l7.11,6.21  l0.12,0.08l0.04,0.04c0.6,0.53,1.54,0.14,1.67-0.68c0.39-2.34,2.11-4.55,5.22-5.46c0.59-0.1,1.19-0.11,1.78-0.04  c1.36,0.24,2.48,0.79,3.34,1.52c0.84,0.75,1.52,1.79,1.94,3.11c0.15,0.58,0.21,1.17,0.19,1.77c-0.49,3.2-2.46,5.19-4.73,5.89  C248.44,70.2,248.17,71.18,248.78,71.71z"></path>	<path class="st4" d="M219.64,42.51l-0.01,0.04l-0.01,0.02l-0.04,0.18c0.01,0.18,0.16,0.36,0.35,0.39l7.19-0.35  c0.1,0,0.19,0.02,0.28,0.04l0,0c0.25,0,0.49,0.08,0.68,0.21l0.04-0.23l-0.35-8.08c0.21-0.32,0.61-0.48,0.98-0.31  c0.69,0.32,1.47,0.49,2.28,0.45c3.84-0.18,6.46-4.75,3.49-8.79c-0.15-0.2-0.34-0.38-0.55-0.52c-2.06-1.33-4.1-1.24-5.64-0.35  c-0.34,0.2-0.74,0.1-0.98-0.17L227.01,17c-0.02-0.45-0.38-0.8-0.82-0.8l-0.27-0.04l-7.24,0.34c-0.53-0.07-0.89-0.64-0.66-1.16  c0.33-0.73,0.5-1.54,0.46-2.4c-0.12-2.89-2.54-5.12-5.36-4.93c-2.83,0.06-5.03,2.5-4.89,5.39c0.04,0.86,0.28,1.65,0.67,2.35  c0.28,0.49-0.03,1.1-0.55,1.21l-7.25,0.31l-0.26,0.06c-0.44,0.04-0.77,0.42-0.74,0.88l0.37,8.03c-0.22,0.29-0.6,0.42-0.96,0.25  c-1.61-0.75-3.65-0.65-5.58,0.86c-0.2,0.15-0.37,0.35-0.5,0.57c-2.59,4.28,0.43,8.6,4.27,8.44c0.81-0.03,1.57-0.27,2.23-0.65  c0.36-0.21,0.77-0.08,1,0.22l0.38,8.08c0,0.1,0.03,0.19,0.07,0.28c0.18-0.15,0.41-0.24,0.66-0.27l0,0  c0.09-0.03,0.17-0.06,0.28-0.06l7.19-0.33c0.18-0.05,0.32-0.24,0.31-0.42l-0.05-0.17l-0.01-0.02L209.75,43l-0.01-0.02  c-0.4-0.72-0.65-1.55-0.7-2.44l0,0l0-0.02l0,0l0-0.01c-0.03-0.56,0.05-1.09,0.17-1.58c0.55-2.32,2.52-4.12,4.99-4.24l0.13,0  l0.11-0.01c2.46-0.12,4.59,1.49,5.36,3.75c0.16,0.48,0.29,1,0.32,1.56l0,0.01C220.15,40.88,219.98,41.74,219.64,42.51z"></path>	<path class="st5" d="M181.66,36.72c0.53-1.04,1.41-1.89,2.56-2.34l0.14,0.34l-0.13-0.35c0.28-0.11,0.55-0.16,0.79-0.21  c0.22-0.12,0.45-0.23,0.68-0.32c0.11-0.04,0.23-0.08,0.35-0.12l-2.42-6.24c-0.08-0.2-0.27-0.28-0.44-0.24l-0.03,0l-0.05,0.02  l-0.06,0l-0.11,0.02l-6.2,2.43l-0.03,0.01c-0.52,0.1-1.01-0.17-1.24-0.62l-0.05-0.09c-0.06-0.15-0.08-0.31-0.07-0.48l0,0l0-0.04  l0-0.01c0.06-0.66-0.02-1.35-0.28-2.01l0-0.01c-0.15-0.39-0.37-0.74-0.63-1.08c-1.14-1.49-3.09-2.13-4.86-1.44l-0.09,0.04l-0.01,0  l-0.01,0l-0.09,0.03c-0.83,0.32-1.49,0.9-1.94,1.6c-0.51,0.79-0.76,1.76-0.67,2.74c0.02,0.24,0.06,0.47,0.11,0.7  c0.04,0.17,0.08,0.34,0.15,0.51l0,0l0,0.01c0.26,0.66,0.66,1.22,1.15,1.67l0.01,0.01l0.01,0.01l0.02,0.02l0,0  c0.12,0.12,0.21,0.25,0.27,0.4l0.02,0.09c0.14,0.49-0.04,1.02-0.49,1.3l-0.03,0.02l-6.21,2.41l-0.05,0.03l-0.05,0.03l-0.04,0.04  l-0.05,0.02c-0.17,0.08-0.27,0.29-0.19,0.49l2.73,6.97l-0.04,0.13c-0.1,0.31-0.33,0.57-0.65,0.69c-0.16,0.06-0.34,0.09-0.51,0.07  c-0.64-0.07-1.29,0.01-1.92,0.25c-0.84,0.33-1.64,0.95-2.3,1.96c-0.1,0.15-0.18,0.33-0.22,0.51c-0.26,1.19-0.16,2.23,0.18,3.1  c0.87,2.24,3.33,3.36,5.48,2.52l0.01,0c0.63-0.25,1.17-0.63,1.59-1.11c0.12-0.13,0.26-0.23,0.41-0.29  c0.35-0.13,0.72-0.07,1.02,0.12l0.1,0.07l2.74,7c0.08,0.21,0.3,0.3,0.49,0.23l6.46-2.53l0.1-0.06l0.03-0.01l0.04-0.01  c0.1-0.04,0.16-0.1,0.19-0.19c0.03-0.09,0.03-0.19-0.01-0.29l-0.15-0.19c-0.74-0.56-1.34-1.32-1.7-2.26  c-0.38-0.98-0.5-2.14-0.24-3.4l0.01-0.02l0.01-0.02c0.15-0.45,0.36-0.88,0.63-1.27l0.01-0.01l0.01-0.01  c0.66-0.86,1.46-1.45,2.29-1.79l0,0l0.01,0c0.85-0.31,1.83-0.41,2.9-0.23l0.01,0l0.01,0c0.46,0.11,0.91,0.28,1.32,0.51l0.02,0.01  l0.02,0.01c1.04,0.76,1.74,1.69,2.12,2.67c0.36,0.93,0.44,1.9,0.27,2.81l0.02,0.24c0.04,0.1,0.11,0.18,0.19,0.22  c0.08,0.04,0.16,0.05,0.27,0.01l0.06-0.02l0.03-0.01l0.08-0.02l6.48-2.51c0.18-0.07,0.28-0.29,0.2-0.5l-2.45-6.33  c-0.14,0.08-0.28,0.15-0.44,0.21l0,0c-0.27,0.1-0.5,0.13-0.69,0.16c-0.21,0.12-0.43,0.24-0.67,0.33c-0.95,0.37-2.07,0.46-3.31,0.18  l-0.14-0.02c-0.27-0.07-0.52-0.19-0.75-0.35c-0.59-0.41-1.06-0.88-1.44-1.37c-0.12-0.15-0.22-0.31-0.32-0.47  c-0.19-0.3-0.35-0.6-0.47-0.91C180.9,39.5,181.02,37.97,181.66,36.72z"></path></g></svg>